# xmcd
# Copyright (C) 1995-1998 Ti Kan
#
# Track frame offsets:
#       150
#       18245
#       35507
#       52518
#       73956
#       95115
#       111347
#
# Disc length: 1716 seconds
#
# Revision: 0
# Processed by: cddbd v1.5.2PL0 Copyright (c) Steve Scherf et al.
# Submitted via: CD-Transfer v1.0
#
DISCID=5906b207
DTITLE=Stanton - Orignalton
DYEAR=08
DGENRE=
TTITLE0=Originalton
TTITLE1=Mu_Sick
TTITLE2=Nebeneinander
TTITLE3=Menschen Und Typen
TTITLE4=Was Wir (Nicht Wollen)
TTITLE5=Ohne Mich
TTITLE6=Mach Die Augen Auf
EXTD=
EXTT0=
EXTT1=
EXTT2=
EXTT3=
EXTT4=
EXTT5=
EXTT6=
PLAYORDER=
